<?xml version="1.0" encoding="UTF-8"?>
<!DOCTYPE svg PUBLIC "-//W3C//DTD SVG 1.1//EN" "http://www.w3.org/Graphics/SVG/1.1/DTD/svg11.dtd">
<svg xmlns="http://www.w3.org/2000/svg" version="1.1" viewBox="0 0 45 45" stroke="none">
	<rect width="100%" height="100%" fill="#FFFFFF"/>
	<path d="M2,2h1v1h-1z M3,2h1v1h-1z M4,2h1v1h-1z M5,2h1v1h-1z M6,2h1v1h-1z M7,2h1v1h-1z M8,2h1v1h-1z M15,2h1v1h-1z M18,2h1v1h-1z M19,2h1v1h-1z M20,2h1v1h-1z M21,2h1v1h-1z M23,2h1v1h-1z M24,2h1v1h-1z M25,2h1v1h-1z M26,2h1v1h-1z M27,2h1v1h-1z M31,2h1v1h-1z M33,2h1v1h-1z M34,2h1v1h-1z M36,2h1v1h-1z M37,2h1v1h-1z M38,2h1v1h-1z M39,2h1v1h-1z M40,2h1v1h-1z M41,2h1v1h-1z M42,2h1v1h-1z M2,3h1v1h-1z M8,3h1v1h-1z M11,3h1v1h-1z M12,3h1v1h-1z M17,3h1v1h-1z M18,3h1v1h-1z M19,3h1v1h-1z M23,3h1v1h-1z M27,3h1v1h-1z M28,3h1v1h-1z M29,3h1v1h-1z M32,3h1v1h-1z M34,3h1v1h-1z M36,3h1v1h-1z M42,3h1v1h-1z M2,4h1v1h-1z M4,4h1v1h-1z M5,4h1v1h-1z M6,4h1v1h-1z M8,4h1v1h-1z M10,4h1v1h-1z M12,4h1v1h-1z M13,4h1v1h-1z M15,4h1v1h-1z M16,4h1v1h-1z M17,4h1v1h-1z M18,4h1v1h-1z M19,4h1v1h-1z M20,4h1v1h-1z M21,4h1v1h-1z M23,4h1v1h-1z M24,4h1v1h-1z M27,4h1v1h-1z M34,4h1v1h-1z M36,4h1v1h-1z M38,4h1v1h-1z M39,4h1v1h-1z M40,4h1v1h-1z M42,4h1v1h-1z M2,5h1v1h-1z M4,5h1v1h-1z M5,5h1v1h-1z M6,5h1v1h-1z M8,5h1v1h-1z M10,5h1v1h-1z M12,5h1v1h-1z M13,5h1v1h-1z M14,5h1v1h-1z M18,5h1v1h-1z M23,5h1v1h-1z M28,5h1v1h-1z M29,5h1v1h-1z M31,5h1v1h-1z M34,5h1v1h-1z M36,5h1v1h-1z M38,5h1v1h-1z M39,5h1v1h-1z M40,5h1v1h-1z M42,5h1v1h-1z M2,6h1v1h-1z M4,6h1v1h-1z M5,6h1v1h-1z M6,6h1v1h-1z M8,6h1v1h-1z M10,6h1v1h-1z M15,6h1v1h-1z M19,6h1v1h-1z M20,6h1v1h-1z M21,6h1v1h-1z M22,6h1v1h-1z M24,6h1v1h-1z M25,6h1v1h-1z M26,6h1v1h-1z M30,6h1v1h-1z M32,6h1v1h-1z M33,6h1v1h-1z M34,6h1v1h-1z M36,6h1v1h-1z M38,6h1v1h-1z M39,6h1v1h-1z M40,6h1v1h-1z M42,6h1v1h-1z M2,7h1v1h-1z M8,7h1v1h-1z M10,7h1v1h-1z M11,7h1v1h-1z M12,7h1v1h-1z M13,7h1v1h-1z M14,7h1v1h-1z M15,7h1v1h-1z M16,7h1v1h-1z M19,7h1v1h-1z M23,7h1v1h-1z M28,7h1v1h-1z M29,7h1v1h-1z M30,7h1v1h-1z M31,7h1v1h-1z M34,7h1v1h-1z M36,7h1v1h-1z M42,7h1v1h-1z M2,8h1v1h-1z M3,8h1v1h-1z M4,8h1v1h-1z M5,8h1v1h-1z M6,8h1v1h-1z M7,8h1v1h-1z M8,8h1v1h-1z M10,8h1v1h-1z M12,8h1v1h-1z M14,8h1v1h-1z M16,8h1v1h-1z M18,8h1v1h-1z M20,8h1v1h-1z M22,8h1v1h-1z M24,8h1v1h-1z M26,8h1v1h-1z M28,8h1v1h-1z M30,8h1v1h-1z M32,8h1v1h-1z M34,8h1v1h-1z M36,8h1v1h-1z M37,8h1v1h-1z M38,8h1v1h-1z M39,8h1v1h-1z M40,8h1v1h-1z M41,8h1v1h-1z M42,8h1v1h-1z M10,9h1v1h-1z M15,9h1v1h-1z M16,9h1v1h-1z M17,9h1v1h-1z M18,9h1v1h-1z M22,9h1v1h-1z M23,9h1v1h-1z M24,9h1v1h-1z M25,9h1v1h-1z M28,9h1v1h-1z M33,9h1v1h-1z M2,10h1v1h-1z M4,10h1v1h-1z M5,10h1v1h-1z M6,10h1v1h-1z M7,10h1v1h-1z M8,10h1v1h-1z M19,10h1v1h-1z M24,10h1v1h-1z M26,10h1v1h-1z M27,10h1v1h-1z M28,10h1v1h-1z M29,10h1v1h-1z M31,10h1v1h-1z M34,10h1v1h-1z M36,10h1v1h-1z M37,10h1v1h-1z M38,10h1v1h-1z M39,10h1v1h-1z M40,10h1v1h-1z M2,11h1v1h-1z M4,11h1v1h-1z M9,11h1v1h-1z M11,11h1v1h-1z M15,11h1v1h-1z M17,11h1v1h-1z M18,11h1v1h-1z M19,11h1v1h-1z M20,11h1v1h-1z M21,11h1v1h-1z M22,11h1v1h-1z M23,11h1v1h-1z M24,11h1v1h-1z M25,11h1v1h-1z M27,11h1v1h-1z M30,11h1v1h-1z M31,11h1v1h-1z M33,11h1v1h-1z M34,11h1v1h-1z M35,11h1v1h-1z M36,11h1v1h-1z M37,11h1v1h-1z M38,11h1v1h-1z M40,11h1v1h-1z M42,11h1v1h-1z M2,12h1v1h-1z M3,12h1v1h-1z M6,12h1v1h-1z M8,12h1v1h-1z M9,12h1v1h-1z M11,12h1v1h-1z M12,12h1v1h-1z M14,12h1v1h-1z M16,12h1v1h-1z M17,12h1v1h-1z M20,12h1v1h-1z M22,12h1v1h-1z M23,12h1v1h-1z M26,12h1v1h-1z M29,12h1v1h-1z M30,12h1v1h-1z M32,12h1v1h-1z M34,12h1v1h-1z M35,12h1v1h-1z M36,12h1v1h-1z M37,12h1v1h-1z M38,12h1v1h-1z M41,12h1v1h-1z M4,13h1v1h-1z M5,13h1v1h-1z M6,13h1v1h-1z M10,13h1v1h-1z M14,13h1v1h-1z M18,13h1v1h-1z M21,13h1v1h-1z M23,13h1v1h-1z M24,13h1v1h-1z M25,13h1v1h-1z M29,13h1v1h-1z M30,13h1v1h-1z M32,13h1v1h-1z M33,13h1v1h-1z M34,13h1v1h-1z M37,13h1v1h-1z M38,13h1v1h-1z M39,13h1v1h-1z M41,13h1v1h-1z M42,13h1v1h-1z M2,14h1v1h-1z M3,14h1v1h-1z M4,14h1v1h-1z M5,14h1v1h-1z M7,14h1v1h-1z M8,14h1v1h-1z M9,14h1v1h-1z M13,14h1v1h-1z M19,14h1v1h-1z M22,14h1v1h-1z M26,14h1v1h-1z M27,14h1v1h-1z M28,14h1v1h-1z M30,14h1v1h-1z M31,14h1v1h-1z M33,14h1v1h-1z M37,14h1v1h-1z M39,14h1v1h-1z M40,14h1v1h-1z M41,14h1v1h-1z M7,15h1v1h-1z M9,15h1v1h-1z M10,15h1v1h-1z M11,15h1v1h-1z M12,15h1v1h-1z M14,15h1v1h-1z M16,15h1v1h-1z M17,15h1v1h-1z M18,15h1v1h-1z M20,15h1v1h-1z M23,15h1v1h-1z M27,15h1v1h-1z M29,15h1v1h-1z M33,15h1v1h-1z M34,15h1v1h-1z M36,15h1v1h-1z M37,15h1v1h-1z M38,15h1v1h-1z M40,15h1v1h-1z M41,15h1v1h-1z M4,16h1v1h-1z M7,16h1v1h-1z M8,16h1v1h-1z M9,16h1v1h-1z M11,16h1v1h-1z M12,16h1v1h-1z M13,16h1v1h-1z M15,16h1v1h-1z M16,16h1v1h-1z M17,16h1v1h-1z M18,16h1v1h-1z M22,16h1v1h-1z M25,16h1v1h-1z M26,16h1v1h-1z M27,16h1v1h-1z M28,16h1v1h-1z M29,16h1v1h-1z M30,16h1v1h-1z M35,16h1v1h-1z M37,16h1v1h-1z M39,16h1v1h-1z M2,17h1v1h-1z M3,17h1v1h-1z M5,17h1v1h-1z M10,17h1v1h-1z M23,17h1v1h-1z M25,17h1v1h-1z M29,17h1v1h-1z M32,17h1v1h-1z M33,17h1v1h-1z M34,17h1v1h-1z M36,17h1v1h-1z M37,17h1v1h-1z M39,17h1v1h-1z M41,17h1v1h-1z M42,17h1v1h-1z M4,18h1v1h-1z M5,18h1v1h-1z M6,18h1v1h-1z M7,18h1v1h-1z M8,18h1v1h-1z M11,18h1v1h-1z M13,18h1v1h-1z M16,18h1v1h-1z M19,18h1v1h-1z M20,18h1v1h-1z M22,18h1v1h-1z M25,18h1v1h-1z M26,18h1v1h-1z M27,18h1v1h-1z M29,18h1v1h-1z M30,18h1v1h-1z M31,18h1v1h-1z M35,18h1v1h-1z M37,18h1v1h-1z M40,18h1v1h-1z M41,18h1v1h-1z M2,19h1v1h-1z M3,19h1v1h-1z M6,19h1v1h-1z M7,19h1v1h-1z M9,19h1v1h-1z M10,19h1v1h-1z M11,19h1v1h-1z M12,19h1v1h-1z M13,19h1v1h-1z M14,19h1v1h-1z M17,19h1v1h-1z M18,19h1v1h-1z M21,19h1v1h-1z M24,19h1v1h-1z M25,19h1v1h-1z M26,19h1v1h-1z M28,19h1v1h-1z M31,19h1v1h-1z M33,19h1v1h-1z M34,19h1v1h-1z M36,19h1v1h-1z M37,19h1v1h-1z M38,19h1v1h-1z M41,19h1v1h-1z M42,19h1v1h-1z M2,20h1v1h-1z M5,20h1v1h-1z M7,20h1v1h-1z M8,20h1v1h-1z M10,20h1v1h-1z M13,20h1v1h-1z M15,20h1v1h-1z M16,20h1v1h-1z M17,20h1v1h-1z M20,20h1v1h-1z M24,20h1v1h-1z M26,20h1v1h-1z M29,20h1v1h-1z M30,20h1v1h-1z M34,20h1v1h-1z M35,20h1v1h-1z M38,20h1v1h-1z M39,20h1v1h-1z M40,20h1v1h-1z M2,21h1v1h-1z M3,21h1v1h-1z M5,21h1v1h-1z M6,21h1v1h-1z M7,21h1v1h-1z M13,21h1v1h-1z M16,21h1v1h-1z M18,21h1v1h-1z M26,21h1v1h-1z M28,21h1v1h-1z M29,21h1v1h-1z M30,21h1v1h-1z M32,21h1v1h-1z M33,21h1v1h-1z M38,21h1v1h-1z M39,21h1v1h-1z M41,21h1v1h-1z M42,21h1v1h-1z M2,22h1v1h-1z M3,22h1v1h-1z M8,22h1v1h-1z M12,22h1v1h-1z M13,22h1v1h-1z M14,22h1v1h-1z M16,22h1v1h-1z M17,22h1v1h-1z M18,22h1v1h-1z M20,22h1v1h-1z M21,22h1v1h-1z M22,22h1v1h-1z M23,22h1v1h-1z M24,22h1v1h-1z M26,22h1v1h-1z M31,22h1v1h-1z M35,22h1v1h-1z M40,22h1v1h-1z M5,23h1v1h-1z M9,23h1v1h-1z M10,23h1v1h-1z M11,23h1v1h-1z M12,23h1v1h-1z M14,23h1v1h-1z M15,23h1v1h-1z M19,23h1v1h-1z M22,23h1v1h-1z M23,23h1v1h-1z M25,23h1v1h-1z M28,23h1v1h-1z M30,23h1v1h-1z M32,23h1v1h-1z M33,23h1v1h-1z M34,23h1v1h-1z M36,23h1v1h-1z M37,23h1v1h-1z M38,23h1v1h-1z M40,23h1v1h-1z M41,23h1v1h-1z M42,23h1v1h-1z M2,24h1v1h-1z M3,24h1v1h-1z M6,24h1v1h-1z M8,24h1v1h-1z M10,24h1v1h-1z M16,24h1v1h-1z M17,24h1v1h-1z M18,24h1v1h-1z M22,24h1v1h-1z M26,24h1v1h-1z M28,24h1v1h-1z M29,24h1v1h-1z M31,24h1v1h-1z M39,24h1v1h-1z M2,25h1v1h-1z M3,25h1v1h-1z M5,25h1v1h-1z M6,25h1v1h-1z M9,25h1v1h-1z M10,25h1v1h-1z M11,25h1v1h-1z M16,25h1v1h-1z M17,25h1v1h-1z M23,25h1v1h-1z M25,25h1v1h-1z M33,25h1v1h-1z M34,25h1v1h-1z M35,25h1v1h-1z M42,25h1v1h-1z M2,26h1v1h-1z M3,26h1v1h-1z M4,26h1v1h-1z M5,26h1v1h-1z M6,26h1v1h-1z M8,26h1v1h-1z M11,26h1v1h-1z M12,26h1v1h-1z M13,26h1v1h-1z M14,26h1v1h-1z M15,26h1v1h-1z M16,26h1v1h-1z M17,26h1v1h-1z M18,26h1v1h-1z M19,26h1v1h-1z M20,26h1v1h-1z M21,26h1v1h-1z M24,26h1v1h-1z M26,26h1v1h-1z M27,26h1v1h-1z M28,26h1v1h-1z M29,26h1v1h-1z M31,26h1v1h-1z M35,26h1v1h-1z M37,26h1v1h-1z M40,26h1v1h-1z M41,26h1v1h-1z M42,26h1v1h-1z M2,27h1v1h-1z M9,27h1v1h-1z M10,27h1v1h-1z M16,27h1v1h-1z M17,27h1v1h-1z M18,27h1v1h-1z M19,27h1v1h-1z M20,27h1v1h-1z M21,27h1v1h-1z M22,27h1v1h-1z M25,27h1v1h-1z M30,27h1v1h-1z M31,27h1v1h-1z M33,27h1v1h-1z M35,27h1v1h-1z M36,27h1v1h-1z M37,27h1v1h-1z M38,27h1v1h-1z M39,27h1v1h-1z M42,27h1v1h-1z M6,28h1v1h-1z M8,28h1v1h-1z M9,28h1v1h-1z M10,28h1v1h-1z M11,28h1v1h-1z M12,28h1v1h-1z M14,28h1v1h-1z M16,28h1v1h-1z M17,28h1v1h-1z M24,28h1v1h-1z M28,28h1v1h-1z M29,28h1v1h-1z M32,28h1v1h-1z M34,28h1v1h-1z M35,28h1v1h-1z M37,28h1v1h-1z M41,28h1v1h-1z M2,29h1v1h-1z M3,29h1v1h-1z M4,29h1v1h-1z M6,29h1v1h-1z M9,29h1v1h-1z M10,29h1v1h-1z M11,29h1v1h-1z M14,29h1v1h-1z M18,29h1v1h-1z M21,29h1v1h-1z M22,29h1v1h-1z M23,29h1v1h-1z M24,29h1v1h-1z M26,29h1v1h-1z M28,29h1v1h-1z M30,29h1v1h-1z M33,29h1v1h-1z M34,29h1v1h-1z M35,29h1v1h-1z M37,29h1v1h-1z M39,29h1v1h-1z M2,30h1v1h-1z M3,30h1v1h-1z M5,30h1v1h-1z M6,30h1v1h-1z M8,30h1v1h-1z M9,30h1v1h-1z M13,30h1v1h-1z M14,30h1v1h-1z M17,30h1v1h-1z M19,30h1v1h-1z M21,30h1v1h-1z M23,30h1v1h-1z M24,30h1v1h-1z M27,30h1v1h-1z M28,30h1v1h-1z M31,30h1v1h-1z M33,30h1v1h-1z M35,30h1v1h-1z M39,30h1v1h-1z M40,30h1v1h-1z M2,31h1v1h-1z M3,31h1v1h-1z M4,31h1v1h-1z M5,31h1v1h-1z M7,31h1v1h-1z M12,31h1v1h-1z M14,31h1v1h-1z M15,31h1v1h-1z M16,31h1v1h-1z M18,31h1v1h-1z M20,31h1v1h-1z M22,31h1v1h-1z M23,31h1v1h-1z M26,31h1v1h-1z M28,31h1v1h-1z M29,31h1v1h-1z M30,31h1v1h-1z M33,31h1v1h-1z M34,31h1v1h-1z M35,31h1v1h-1z M36,31h1v1h-1z M38,31h1v1h-1z M39,31h1v1h-1z M40,31h1v1h-1z M42,31h1v1h-1z M2,32h1v1h-1z M5,32h1v1h-1z M7,32h1v1h-1z M8,32h1v1h-1z M10,32h1v1h-1z M11,32h1v1h-1z M12,32h1v1h-1z M13,32h1v1h-1z M14,32h1v1h-1z M17,32h1v1h-1z M19,32h1v1h-1z M20,32h1v1h-1z M21,32h1v1h-1z M23,32h1v1h-1z M24,32h1v1h-1z M34,32h1v1h-1z M35,32h1v1h-1z M36,32h1v1h-1z M37,32h1v1h-1z M38,32h1v1h-1z M41,32h1v1h-1z M2,33h1v1h-1z M5,33h1v1h-1z M6,33h1v1h-1z M7,33h1v1h-1z M9,33h1v1h-1z M13,33h1v1h-1z M14,33h1v1h-1z M15,33h1v1h-1z M17,33h1v1h-1z M20,33h1v1h-1z M21,33h1v1h-1z M22,33h1v1h-1z M23,33h1v1h-1z M24,33h1v1h-1z M26,33h1v1h-1z M30,33h1v1h-1z M33,33h1v1h-1z M34,33h1v1h-1z M35,33h1v1h-1z M36,33h1v1h-1z M37,33h1v1h-1z M38,33h1v1h-1z M39,33h1v1h-1z M2,34h1v1h-1z M8,34h1v1h-1z M9,34h1v1h-1z M10,34h1v1h-1z M12,34h1v1h-1z M15,34h1v1h-1z M16,34h1v1h-1z M19,34h1v1h-1z M20,34h1v1h-1z M21,34h1v1h-1z M22,34h1v1h-1z M27,34h1v1h-1z M31,34h1v1h-1z M33,34h1v1h-1z M34,34h1v1h-1z M35,34h1v1h-1z M36,34h1v1h-1z M37,34h1v1h-1z M38,34h1v1h-1z M40,34h1v1h-1z M10,35h1v1h-1z M11,35h1v1h-1z M12,35h1v1h-1z M15,35h1v1h-1z M18,35h1v1h-1z M19,35h1v1h-1z M21,35h1v1h-1z M23,35h1v1h-1z M24,35h1v1h-1z M25,35h1v1h-1z M26,35h1v1h-1z M27,35h1v1h-1z M33,35h1v1h-1z M34,35h1v1h-1z M38,35h1v1h-1z M39,35h1v1h-1z M40,35h1v1h-1z M41,35h1v1h-1z M42,35h1v1h-1z M2,36h1v1h-1z M3,36h1v1h-1z M4,36h1v1h-1z M5,36h1v1h-1z M6,36h1v1h-1z M7,36h1v1h-1z M8,36h1v1h-1z M12,36h1v1h-1z M13,36h1v1h-1z M17,36h1v1h-1z M19,36h1v1h-1z M23,36h1v1h-1z M26,36h1v1h-1z M27,36h1v1h-1z M28,36h1v1h-1z M29,36h1v1h-1z M34,36h1v1h-1z M36,36h1v1h-1z M38,36h1v1h-1z M2,37h1v1h-1z M8,37h1v1h-1z M10,37h1v1h-1z M11,37h1v1h-1z M16,37h1v1h-1z M18,37h1v1h-1z M19,37h1v1h-1z M20,37h1v1h-1z M21,37h1v1h-1z M23,37h1v1h-1z M24,37h1v1h-1z M25,37h1v1h-1z M27,37h1v1h-1z M29,37h1v1h-1z M33,37h1v1h-1z M34,37h1v1h-1z M38,37h1v1h-1z M39,37h1v1h-1z M42,37h1v1h-1z M2,38h1v1h-1z M4,38h1v1h-1z M5,38h1v1h-1z M6,38h1v1h-1z M8,38h1v1h-1z M10,38h1v1h-1z M15,38h1v1h-1z M17,38h1v1h-1z M22,38h1v1h-1z M23,38h1v1h-1z M25,38h1v1h-1z M28,38h1v1h-1z M29,38h1v1h-1z M32,38h1v1h-1z M34,38h1v1h-1z M35,38h1v1h-1z M36,38h1v1h-1z M37,38h1v1h-1z M38,38h1v1h-1z M40,38h1v1h-1z M42,38h1v1h-1z M2,39h1v1h-1z M4,39h1v1h-1z M5,39h1v1h-1z M6,39h1v1h-1z M8,39h1v1h-1z M10,39h1v1h-1z M11,39h1v1h-1z M12,39h1v1h-1z M13,39h1v1h-1z M17,39h1v1h-1z M18,39h1v1h-1z M19,39h1v1h-1z M20,39h1v1h-1z M21,39h1v1h-1z M22,39h1v1h-1z M23,39h1v1h-1z M24,39h1v1h-1z M25,39h1v1h-1z M27,39h1v1h-1z M30,39h1v1h-1z M32,39h1v1h-1z M33,39h1v1h-1z M35,39h1v1h-1z M37,39h1v1h-1z M39,39h1v1h-1z M40,39h1v1h-1z M2,40h1v1h-1z M4,40h1v1h-1z M5,40h1v1h-1z M6,40h1v1h-1z M8,40h1v1h-1z M10,40h1v1h-1z M11,40h1v1h-1z M14,40h1v1h-1z M15,40h1v1h-1z M16,40h1v1h-1z M17,40h1v1h-1z M18,40h1v1h-1z M22,40h1v1h-1z M23,40h1v1h-1z M24,40h1v1h-1z M29,40h1v1h-1z M31,40h1v1h-1z M33,40h1v1h-1z M34,40h1v1h-1z M35,40h1v1h-1z M36,40h1v1h-1z M37,40h1v1h-1z M38,40h1v1h-1z M40,40h1v1h-1z M2,41h1v1h-1z M8,41h1v1h-1z M12,41h1v1h-1z M13,41h1v1h-1z M15,41h1v1h-1z M16,41h1v1h-1z M17,41h1v1h-1z M19,41h1v1h-1z M22,41h1v1h-1z M23,41h1v1h-1z M24,41h1v1h-1z M25,41h1v1h-1z M26,41h1v1h-1z M28,41h1v1h-1z M33,41h1v1h-1z M34,41h1v1h-1z M38,41h1v1h-1z M39,41h1v1h-1z M41,41h1v1h-1z M2,42h1v1h-1z M3,42h1v1h-1z M4,42h1v1h-1z M5,42h1v1h-1z M6,42h1v1h-1z M7,42h1v1h-1z M8,42h1v1h-1z M10,42h1v1h-1z M12,42h1v1h-1z M13,42h1v1h-1z M15,42h1v1h-1z M16,42h1v1h-1z M19,42h1v1h-1z M20,42h1v1h-1z M21,42h1v1h-1z M26,42h1v1h-1z M27,42h1v1h-1z M28,42h1v1h-1z M31,42h1v1h-1z M32,42h1v1h-1z M35,42h1v1h-1z M37,42h1v1h-1z M38,42h1v1h-1z M39,42h1v1h-1z M40,42h1v1h-1z" fill="#000000"/>
</svg>
