<?xml version="1.0" standalone="no"?>
<!DOCTYPE svg PUBLIC "-//W3C//DTD SVG 20010904//EN"
 "http://www.w3.org/TR/2001/REC-SVG-20010904/DTD/svg10.dtd">
<svg version="1.0" xmlns="http://www.w3.org/2000/svg"
 width="500.000000pt" height="500.000000pt" viewBox="0 0 500.000000 500.000000"
 preserveAspectRatio="xMidYMid meet">
<metadata>
Created by potrace 1.14, written by Peter Selinger 2001-2017
</metadata>
<g transform="translate(0.000000,500.000000) scale(0.100000,-0.100000)"
fill="#000000" stroke="none">
<path d="M2470 3314 c-126 -97 -119 -78 -75 -192 l38 -100 86 -41 c47 -23 91
-41 97 -41 11 0 24 44 24 81 0 10 -11 31 -24 46 l-25 28 26 20 25 21 -17 82
c-9 46 -15 88 -12 95 2 6 12 -30 21 -80 17 -84 20 -92 37 -83 10 6 22 16 26
23 18 28 70 173 64 178 -3 4 -39 10 -78 14 -72 7 -73 7 -74 -16 -1 -24 -1 -24
-8 1 -12 42 -41 34 -131 -36z"/>
<path d="M3580 3361 c-8 -6 -17 -8 -21 -6 -7 5 -248 -41 -255 -47 -2 -3 5 -14
16 -26 15 -16 33 -22 63 -22 23 0 80 -3 126 -7 l84 -6 -5 29 c-3 16 -8 38 -12
49 -4 11 1 5 11 -12 10 -18 29 -40 41 -49 27 -19 28 -28 3 -51 -13 -12 -27
-58 -45 -147 -14 -71 -25 -130 -24 -131 2 -1 18 -5 37 -9 l33 -6 -6 83 c-7 76
-5 90 28 192 20 61 36 115 36 121 0 5 -20 20 -45 32 -53 25 -46 24 -65 13z"/>
<path d="M2773 3333 c-3 -10 -18 -50 -33 -89 l-27 -72 45 -6 c78 -11 101 -7
181 30 71 32 80 40 95 77 9 22 14 42 13 44 -4 4 -223 33 -249 33 -10 0 -21 -8
-25 -17z"/>
<path d="M3312 3193 l-30 -58 25 -67 25 -68 39 31 c50 39 55 49 29 49 -17 0
-21 4 -15 18 4 9 12 30 17 45 10 28 12 29 62 23 47 -6 54 -4 89 25 21 17 35
35 30 39 -4 4 -61 11 -125 15 l-117 7 -29 -59z"/>
<path d="M1679 3191 c-30 -21 -78 -69 -107 -105 l-53 -67 29 -47 29 -47 79 -7
c43 -3 105 -12 136 -19 52 -11 61 -10 117 11 34 12 61 27 61 33 0 12 -29 204
-35 233 -4 18 -18 23 -98 37 -51 10 -96 17 -98 17 -3 0 -30 -18 -60 -39z"/>
<path d="M2940 3184 c-30 -14 -50 -28 -43 -32 19 -12 3 -72 -21 -77 -11 -3
-48 -11 -81 -18 l-60 -12 72 -21 71 -21 53 33 c52 32 54 35 60 86 4 29 10 61
14 71 9 23 0 22 -65 -9z"/>
<path d="M3565 3188 l-27 -24 25 -11 c24 -11 26 -10 32 18 9 41 2 44 -30 17z"/>
<path d="M3555 3089 c-11 -4 -41 -8 -67 -8 -41 -1 -52 -6 -99 -49 l-52 -48
102 -23 c57 -12 104 -21 107 -19 5 5 35 150 32 153 -2 1 -12 -1 -23 -6z"/>
<path d="M2674 3030 c-27 -11 -44 -97 -22 -111 37 -25 58 -20 135 27 l77 49
-55 16 c-80 24 -112 29 -135 19z"/>
<path d="M3162 2709 c-7 -14 -10 -16 -7 -5 5 16 1 18 -27 12 -17 -3 -32 -7
-33 -9 -1 -1 -14 -18 -28 -38 -15 -20 -27 -39 -27 -42 0 -4 18 -7 40 -7 26 0
43 6 50 18 11 16 11 16 6 0 -5 -15 1 -18 37 -18 23 0 66 -7 96 -15 80 -21 148
-3 138 37 -3 10 -1 16 4 13 4 -3 15 7 23 23 l15 30 -36 5 c-44 8 -51 3 -32
-21 8 -10 4 -7 -9 6 -20 21 -35 25 -111 30 -84 4 -87 4 -99 -19z"/>
<path d="M1612 2680 c20 -56 163 -388 166 -385 5 5 -27 206 -35 219 -12 20
-115 161 -126 171 -7 7 -8 5 -5 -5z"/>
<path d="M2215 2602 c11 -10 104 -83 208 -160 166 -126 187 -139 187 -117 0
24 -80 188 -105 214 -11 11 -98 34 -285 77 -25 5 -25 5 -5 -14z"/>
<path d="M2010 2547 c0 -8 7 -21 16 -28 14 -11 15 -10 12 11 -3 26 -28 41 -28
17z"/>
<path d="M3146 2338 c-11 -6 -30 -12 -42 -14 -36 -4 -94 -25 -94 -34 0 -4 -9
-6 -20 -3 -12 3 -20 0 -20 -6 0 -7 6 -11 13 -10 24 3 38 -1 33 -10 -9 -14 192
-24 319 -16 l115 7 0 28 c0 18 -8 33 -24 43 -20 14 -31 14 -81 2 -52 -12 -63
-11 -113 6 -64 22 -61 22 -86 7z m-61 -34 c-26 -20 -55 -36 -55 -30 0 5 63 46
70 46 3 -1 -4 -8 -15 -16z"/>
<path d="M2003 2315 c-29 -7 -61 -16 -70 -20 -17 -7 -16 -8 2 -15 21 -9 205
-13 205 -5 0 2 -5 16 -12 30 -13 29 -39 31 -125 10z"/>
<path d="M2620 2314 c0 -12 7 -27 15 -34 19 -16 19 -3 0 30 -13 24 -14 24 -15
4z"/>
<path d="M3460 2270 c0 -13 7 -20 20 -20 11 0 20 3 20 8 0 4 -9 13 -20 20 -18
11 -20 10 -20 -8z"/>
<path d="M2930 2270 c-12 -8 -10 -10 8 -10 13 0 20 4 17 10 -7 12 -6 12 -25 0z"/>
<path d="M2159 2139 c29 -13 48 -16 54 -10 13 13 -32 31 -71 30 -24 0 -22 -3
17 -20z"/>
<path d="M2060 1905 c-7 -8 -11 -17 -9 -18 55 -42 70 -47 144 -47 61 0 84 5
115 23 46 25 47 28 21 44 -13 8 -30 9 -62 1 -41 -9 -150 -5 -182 8 -8 3 -20
-2 -27 -11z"/>
<path d="M3060 1871 c0 -12 29 -23 42 -15 6 4 5 10 -3 15 -18 11 -39 11 -39 0z"/>
<path d="M2938 1802 c-58 -37 -110 -70 -114 -74 -4 -5 105 -8 242 -8 l249 0
43 66 c24 36 41 68 39 70 -3 3 -59 8 -126 11 -133 7 -166 -1 -182 -44 -10 -27
-47 -31 -56 -7 -3 9 -1 25 6 35 6 11 10 19 9 18 -2 0 -51 -30 -110 -67z"/>
<path d="M1047 1582 c-23 -25 -21 -39 7 -57 19 -13 29 -14 45 -5 27 14 28 56
2 70 -27 14 -35 13 -54 -8z"/>
<path d="M1430 1506 l0 -74 -37 20 c-103 53 -224 -39 -210 -159 2 -25 13 -57
24 -72 41 -56 132 -77 193 -46 27 14 30 14 30 0 0 -11 10 -15 35 -15 l35 0 0
210 0 210 -35 0 -35 0 0 -74z m-22 -132 c50 -57 11 -153 -64 -154 -65 0 -109
69 -84 131 26 61 103 74 148 23z"/>
<path d="M2297 1554 c-4 -4 -7 -94 -7 -201 l0 -193 40 0 40 0 0 85 0 85 100 0
100 0 0 -85 0 -85 35 0 35 0 0 200 0 200 -35 0 -35 0 0 -85 0 -85 -100 0 -99
0 -3 83 -3 82 -30 3 c-17 2 -34 0 -38 -4z"/>
<path d="M2750 1361 l0 -201 35 0 34 0 3 58 3 57 51 3 50 3 43 -61 c38 -54 46
-60 77 -60 19 0 34 3 34 7 0 4 -19 34 -41 66 -33 47 -39 61 -28 68 8 5 17 9
22 9 4 0 16 15 27 33 25 41 26 103 0 144 -32 53 -71 67 -197 71 l-113 4 0
-201z m185 129 c52 -12 79 -44 71 -85 -10 -49 -38 -65 -117 -65 l-69 0 0 73
c0 41 3 77 7 80 9 10 61 8 108 -3z"/>
<path d="M3160 1361 l0 -201 35 0 34 0 3 128 3 127 63 -102 c43 -69 70 -103
82 -103 12 0 37 32 76 100 33 55 62 100 67 100 4 0 7 -56 7 -125 l0 -125 29 0
c17 0 33 4 36 10 3 5 3 95 -1 200 l-7 190 -26 0 c-23 0 -35 -16 -101 -130 -41
-71 -77 -130 -80 -129 -3 0 -39 57 -80 127 -70 117 -78 127 -108 130 l-32 3 0
-200z"/>
<path d="M3745 1544 c-44 -22 -65 -54 -65 -100 0 -57 32 -87 118 -109 80 -21
112 -39 112 -64 0 -51 -96 -68 -176 -32 l-42 19 -11 -24 c-15 -34 -16 -33 32
-54 53 -25 155 -26 203 -4 46 22 64 50 64 99 0 60 -36 90 -135 114 -63 15 -95
36 -95 61 0 45 93 66 164 36 32 -13 33 -13 43 15 10 26 9 28 -28 43 -50 20
-145 20 -184 0z"/>
<path d="M1679 1461 c-44 -14 -77 -41 -93 -76 -33 -68 -13 -154 45 -196 79
-56 259 -20 204 41 -16 17 -20 18 -38 5 -51 -36 -157 -1 -157 51 0 2 55 4 121
4 l122 0 -7 43 c-15 94 -109 156 -197 128z m106 -77 c14 -15 25 -31 25 -35 0
-5 -38 -9 -85 -9 -92 0 -100 6 -60 45 34 35 88 34 120 -1z"/>
<path d="M2005 1461 c-16 -4 -40 -13 -52 -20 -21 -11 -22 -13 -8 -35 15 -23
16 -23 60 -7 53 19 93 8 112 -29 l12 -25 -72 -6 c-81 -7 -111 -21 -127 -60
-35 -83 78 -152 170 -104 27 14 30 14 30 0 0 -11 10 -15 35 -15 l35 0 -1 98
c0 110 -13 157 -49 184 -29 21 -101 31 -145 19z m125 -186 c0 -49 -90 -84
-124 -49 -38 37 -10 64 66 64 46 0 58 -3 58 -15z"/>
<path d="M1040 1310 l0 -150 35 0 35 0 0 150 0 150 -35 0 -35 0 0 -150z"/>
<path d="M1453 995 c-15 -11 -15 -15 -4 -29 7 -9 20 -16 27 -16 8 0 14 -5 14
-11 0 -7 -10 -9 -25 -5 -15 4 -25 2 -25 -4 0 -7 14 -10 32 -8 38 4 51 33 19
43 -28 8 -27 23 2 27 l22 3 -22 7 c-12 3 -30 0 -40 -7z"/>
<path d="M2657 998 c-25 -13 -21 -37 8 -44 14 -3 22 -10 19 -15 -3 -6 -14 -7
-25 -4 -11 4 -19 2 -19 -5 0 -7 13 -10 32 -8 42 4 51 34 14 44 -14 3 -26 11
-26 16 0 6 9 8 20 5 11 -3 20 -2 20 3 0 13 -25 18 -43 8z"/>
<path d="M1550 960 c0 -22 5 -40 10 -40 6 0 10 10 10 22 0 21 0 21 15 2 15
-19 15 -19 30 0 15 19 15 19 15 -2 0 -12 5 -22 10 -22 6 0 10 18 10 40 0 45
-10 51 -33 18 l-16 -23 -16 23 c-24 33 -35 27 -35 -18z"/>
<path d="M1705 963 c-8 -20 -12 -39 -9 -42 4 -3 9 0 11 7 6 14 39 16 48 2 16
-26 22 -5 8 30 -20 50 -38 51 -58 3z m31 -10 c-10 -10 -19 5 -10 18 6 11 8 11
12 0 2 -7 1 -15 -2 -18z"/>
<path d="M1820 961 c0 -39 13 -55 23 -28 4 10 7 10 18 0 20 -20 24 -16 24 25
0 34 -2 37 -32 40 -32 3 -33 2 -33 -37z m48 11 c2 -7 -3 -12 -12 -12 -9 0 -16
7 -16 16 0 17 22 14 28 -4z"/>
<path d="M1933 993 c12 -3 17 -15 17 -39 0 -19 5 -34 10 -34 6 0 10 15 10 34
0 24 5 36 18 39 9 3 -3 5 -28 5 -25 0 -37 -2 -27 -5z"/>
<path d="M2090 960 c0 -22 5 -40 10 -40 6 0 10 7 10 15 0 8 9 15 20 15 11 0
20 -7 20 -15 0 -8 5 -15 10 -15 6 0 10 18 10 40 0 22 -4 40 -10 40 -5 0 -10
-7 -10 -15 0 -8 -9 -15 -20 -15 -11 0 -20 7 -20 15 0 8 -4 15 -10 15 -5 0 -10
-18 -10 -40z"/>
<path d="M2220 961 c0 -39 13 -55 23 -28 4 10 7 10 18 0 20 -20 25 -16 24 25
0 34 -2 37 -32 40 -32 3 -33 2 -33 -37z m50 14 c0 -8 -7 -15 -15 -15 -8 0 -15
7 -15 15 0 8 7 15 15 15 8 0 15 -7 15 -15z"/>
<path d="M2341 958 c1 -35 2 -38 8 -18 7 24 8 24 18 5 9 -16 13 -17 27 -6 14
11 16 11 16 -3 0 -9 5 -16 10 -16 6 0 10 18 10 40 0 46 -11 51 -30 15 l-14
-26 -15 26 c-22 36 -31 31 -30 -17z"/>
<path d="M2476 985 c-4 -10 3 -20 19 -27 30 -13 33 -33 5 -25 -11 3 -20 1 -20
-4 0 -5 14 -9 30 -9 24 0 30 4 30 21 0 12 -8 23 -20 26 -27 7 -25 21 3 26 16
3 14 5 -9 6 -20 1 -34 -5 -38 -14z"/>
<path d="M2750 980 c-16 -30 4 -60 40 -60 19 0 33 7 40 20 16 30 -4 60 -40 60
-19 0 -33 -7 -40 -20z m60 -6 c11 -12 10 -18 -3 -32 -16 -15 -18 -15 -34 0
-13 14 -14 20 -3 32 7 9 16 16 20 16 4 0 13 -7 20 -16z"/>
<path d="M2880 960 c0 -22 5 -40 10 -40 6 0 10 6 10 14 0 8 10 17 23 19 l22 4
-22 2 c-13 0 -23 7 -23 15 0 8 10 17 23 19 16 3 13 5 -10 6 -32 1 -33 0 -33
-39z"/>
<path d="M2983 993 c12 -3 17 -15 17 -39 0 -19 5 -34 10 -34 6 0 10 15 10 34
0 24 5 36 18 39 9 3 -3 5 -28 5 -25 0 -37 -2 -27 -5z"/>
<path d="M3084 984 c3 -9 9 -27 12 -40 8 -32 30 -30 42 4 l10 27 7 -27 c10
-37 30 -35 44 3 13 39 14 49 2 49 -5 0 -12 -12 -16 -27 l-7 -28 -10 28 c-5 15
-16 27 -23 27 -7 0 -16 -12 -20 -27 l-7 -28 -10 28 c-5 15 -14 27 -20 27 -6 0
-7 -7 -4 -16z"/>
<path d="M3263 965 c-9 -19 -13 -38 -8 -42 4 -5 10 -2 12 5 6 14 39 16 48 2 3
-5 11 -10 16 -10 5 0 0 18 -11 40 -11 22 -25 40 -30 40 -6 0 -18 -16 -27 -35z
m37 -5 c0 -5 -4 -10 -10 -10 -5 0 -10 5 -10 10 0 6 5 10 10 10 6 0 10 -4 10
-10z"/>
<path d="M3370 960 c0 -22 5 -40 10 -40 6 0 10 5 10 10 0 6 7 10 15 10 8 0 15
-4 15 -10 0 -5 5 -10 11 -10 6 0 9 6 6 14 -3 7 -1 18 5 24 20 20 0 42 -37 42
-34 0 -35 -1 -35 -40z m58 12 c2 -7 -6 -12 -17 -12 -21 0 -27 11 -14 24 9 9
26 2 31 -12z"/>
<path d="M3490 960 c0 -40 0 -40 38 -39 30 2 32 3 10 6 -32 5 -38 23 -8 23 11
0 20 5 20 10 0 6 -9 10 -20 10 -30 0 -24 18 8 23 22 3 20 4 -10 6 -38 1 -38 1
-38 -39z"/>
</g>
</svg>
